<svg xmlns="http://www.w3.org/2000/svg" width="569.847" height="572.969" viewBox="0 0 569.847 572.969">
  <defs>
    <style>
      .cls-1 {
        fill-rule: evenodd;
        fill: #08083b;
      }
    </style>
  </defs>
  <path id="Bank.svg" class="cls-1" d="M1064.77,590.882H546.888a26.067,26.067,0,0,0,0,52.117H1064.76A26.067,26.067,0,0,0,1064.77,590.882ZM579.251,523.151a26.067,26.067,0,0,0,0,52.117H1032.39a26.067,26.067,0,0,0,0-52.117h-6.46v-234.4h6.46a13.014,13.014,0,0,0,0-26.028H579.251a13.014,13.014,0,0,0,0,26.028h6.473v234.4h-6.473Zm394.875-234.4v234.4H896.453v-234.4h77.673Zm-129.479,0v234.4H766.974v-234.4h77.673Zm-207.141,0h77.673v234.4H637.506v-234.4ZM546.888,239.3H1065.01a26.076,26.076,0,0,0,8.41-50.7L816.468,72.289a25.788,25.788,0,0,0-21.243,0l-258.959,117.2a26.064,26.064,0,0,0,10.622,49.761V239.3Z" transform="translate(-521.063 -70.031)"/>
</svg>
