<svg xmlns="http://www.w3.org/2000/svg" width="343.19" height="475" viewBox="0 0 343.19 475">
  <defs>
    <style>
      .cls-1 {
        fill: #08083b;
        fill-rule: evenodd;
      }
    </style>
  </defs>
  <path id="_4.SVG" data-name="4.SVG" class="cls-1" d="M1783.7,641.043c-9.29-11.993-22.59-20.887-39.78-26.484a4.569,4.569,0,0,1-1.2-8.094q32.985-22.337,28.39-68.357c-1.1-12.593-4.6-23.486-10.4-32.68a65.656,65.656,0,0,0-23.59-22.286,129,129,0,0,0-32.29-12.792,237.44,237.44,0,0,0-35.89-6,4.549,4.549,0,0,1-4.1-4.5V396.6a4.587,4.587,0,0,0-4.6-4.6h-34.79a4.587,4.587,0,0,0-4.6,4.6v60.761a4.565,4.565,0,0,1-4.5,4.6c-6.5,0-14.99.2-25.59,0.4a4.548,4.548,0,0,1-4.7-4.6V396.6a4.587,4.587,0,0,0-4.6-4.6h-34.79a4.587,4.587,0,0,0-4.6,4.6v62.86a4.63,4.63,0,0,1-4.49,4.6c-5.9.1-13.7,0.2-23.2,0.2l-55.78-.3a4.586,4.586,0,0,0-4.6,4.6v37.677a4.586,4.586,0,0,0,4.6,4.6h27.09c14.3,0,22.69,6.3,25.29,18.888a3.077,3.077,0,0,1,.1,1v77.052a4.634,4.634,0,0,0,4,4.6c0.2,0,.4.1,0.6,0.1h0a4.586,4.586,0,0,0-4.6,4.6V726.789a2.194,2.194,0,0,1-.1.8c-1.6,9.394-7.09,14.191-16.49,14.191H1466.7a4.6,4.6,0,0,0-4.5,3.8l-7.3,43.073a4.533,4.533,0,0,0,4.5,5.3h51.68c3.6,0,8.8,0,15.7.1,4.3,0.1,7.9.1,10.9,0.1a4.564,4.564,0,0,1,4.49,4.6V862.4a4.586,4.586,0,0,0,4.6,4.6h34.79a4.586,4.586,0,0,0,4.6-4.6V799.743a4.586,4.586,0,0,1,4.6-4.6c6.7,0.1,15.2.2,25.59,0.2a4.586,4.586,0,0,1,4.6,4.6V862.4a4.586,4.586,0,0,0,4.6,4.6h34.79a4.586,4.586,0,0,0,4.6-4.6v-63.86a4.667,4.667,0,0,1,4.3-4.6,306.431,306.431,0,0,0,37.19-4.1,166.867,166.867,0,0,0,34.69-9.894c10.99-4.5,20.29-9.993,27.69-16.689a78.247,78.247,0,0,0,18.39-25.384q7.2-15.441,9.3-35.678Q1800.25,662.48,1783.7,641.043Zm-196.74-127.22c1.3,0,5.1,0,11.3-.1s11.29-.2,15.39-0.3a195.785,195.785,0,0,1,34.19,3,100.468,100.468,0,0,1,15.7,4.7,43.467,43.467,0,0,1,13.7,8,39.64,39.64,0,0,1,8.69,11.993,37.233,37.233,0,0,1,3.6,16.689,40.286,40.286,0,0,1-2.6,14.591,27.764,27.764,0,0,1-7.7,10.993,74.244,74.244,0,0,1-10.59,7.695,49.722,49.722,0,0,1-13.8,5.3c-5.6,1.3-10.5,2.4-14.69,3.1a116.09,116.09,0,0,1-15.7,1.6c-6.3.3-11,.5-14.3,0.6-3.19.1-7.69,0.1-13.29,0-2.1,0-3.9-.1-5.4-0.1a4.566,4.566,0,0,1-4.5-4.6V513.823h0ZM1707.03,708.1a38.35,38.35,0,0,1-7,11.392,40.992,40.992,0,0,1-11.3,8.595,93.268,93.268,0,0,1-13.59,6,109.741,109.741,0,0,1-15.8,4c-6.2,1.1-11.6,1.9-16.29,2.4s-10.2.9-16.7,1.1c-6.5.3-11.5,0.4-15.1,0.4s-8.19-.1-13.69-0.1c-2.4,0-4.4-.1-6.1-0.1a4.565,4.565,0,0,1-4.5-4.6V649.837a4.632,4.632,0,0,1,4.5-4.6c2.3,0,5.3-.1,9.1-0.2,7.5-.2,13.69-0.3,18.39-0.3,4.8,0,11.3.3,19.7,0.9a161.807,161.807,0,0,1,21.09,2.6,132.324,132.324,0,0,1,18.7,5.3,54.838,54.838,0,0,1,16.39,8.694,43.28,43.28,0,0,1,10.6,13.092A40.687,40.687,0,0,1,1707.03,708.1Z" transform="translate(-1454 -392)"/>
</svg>
