<svg xmlns="http://www.w3.org/2000/svg" width="372" height="512" viewBox="0 0 372 512">
  <defs>
    <style>
      .cls-1 {
        fill: #08083b;
        fill-rule: evenodd;
      }
    </style>
  </defs>
  <path id="_10.SVG" data-name="10.SVG" class="cls-1" d="M1273.07,601.876h-36.93v-97.8a112.14,112.14,0,0,0-224.28,0v97.8H974.933A36.964,36.964,0,0,0,938,638.787v228.3A36.964,36.964,0,0,0,974.933,904H1273.07A36.964,36.964,0,0,0,1310,867.089v-228.3A36.965,36.965,0,0,0,1273.07,601.876Zm-236.59-97.8a87.515,87.515,0,0,1,175.03,0v97.8H1036.48v-97.8Zm248.9,363.018h0a12.326,12.326,0,0,1-12.31,12.3H974.933a12.321,12.321,0,0,1-12.311-12.3v-228.3a12.322,12.322,0,0,1,12.311-12.3H1273.07a12.326,12.326,0,0,1,12.31,12.3v228.3Z" transform="translate(-938 -392)"/>
</svg>
