<svg xmlns="http://www.w3.org/2000/svg" xmlns:xlink="http://www.w3.org/1999/xlink" width="56" height="49" viewBox="0 0 56 49">
  <defs>
    <style>
      .cls-1 {
        fill: #00b6d1;
        fill-rule: evenodd;
        filter: url(#filter);
      }
    </style>
    <filter id="filter" x="186" y="107" width="56" height="49" filterUnits="userSpaceOnUse">
      <feFlood result="flood" flood-color="#08083b"/>
      <feComposite result="composite" operator="in" in2="SourceGraphic"/>
      <feBlend result="blend" in2="SourceGraphic"/>
    </filter>
  </defs>
  <path id="Bonus.svg" class="cls-1" d="M239.028,143.789a37.5,37.5,0,0,1-11.807,4.057c-3.846.608-11.08-.858-11.08-2.589,0-.656,6.345,1.616,10.183.584,2.943-.791,2.525-3.566.924-3.932s-10.915-3.808-14.9-3.927a68.327,68.327,0,0,0-8.749,1.026c-0.767.126-1.249,0.112-1.3,0.853-0.223,3.442-.662,10.481-0.9,14.158,0,0.078.1,1.123,0.957,0.388,0.936-.805,2.249-1.7,3.464-1.419,1.905,0.435,18.388,3.48,20.662,2.947,3.253-.762,12.46-6.263,14.225-7.973C243.447,145.312,241.32,142.514,239.028,143.789Zm-41.273-4.915-8.635-.429a1.556,1.556,0,0,0-1.513,1.125l-1.57,14.37a0.948,0.948,0,0,0,.912,1.233h9.57A1.278,1.278,0,0,0,197.824,154l1.051-13.845A1.184,1.184,0,0,0,197.755,138.874Zm-5.083,14.394a2.407,2.407,0,1,1,2.387-2.407A2.4,2.4,0,0,1,192.672,153.268Zm38.376-27.037a1.358,1.358,0,0,0-.383-0.281,4.662,4.662,0,0,0-.971-0.346v2.59a1.817,1.817,0,0,0,1.438-.765h0a1.189,1.189,0,0,0,.107-0.808A0.813,0.813,0,0,0,231.048,126.231Zm0.082,1.2a0.026,0.026,0,0,0,0,0h0Zm-3.96-5.343a0.971,0.971,0,0,0-.167.455,1.1,1.1,0,0,0,.055.5,0.808,0.808,0,0,0,.311.344,2.418,2.418,0,0,0,.462.241c0.135,0.054.287,0.107,0.45,0.157v-2.343A1.769,1.769,0,0,0,227.17,122.091Zm3.973,5.319-0.011.019h0A0.13,0.13,0,0,0,231.143,127.41Zm0.014-.024s0,0,0,0h0ZM230.6,113.3c2.185-1.85,3.644-6.017,2.746-6.2-1.194-.242-3.786.821-5.038,1.008-1.777.216-3.713-1.943-4.8-.739-0.883.978,0.633,4.536,3.006,6.086-7.079,3.507-17.028,21.113.329,22.39C250.86,137.612,238.834,116.717,230.6,113.3Zm2.063,13.885a2.553,2.553,0,0,1-.974,1.729,3.7,3.7,0,0,1-1.994.709v0.759a0.716,0.716,0,0,1-.239.533,0.707,0.707,0,0,1-.763.114,0.719,0.719,0,0,1-.411-0.647v-0.829c-0.122-.023-0.242-0.051-0.362-0.084a3.469,3.469,0,0,1-1.728-1.072,3.139,3.139,0,0,1-.532-0.887c-0.033-.085-0.063-0.171-0.089-0.258a1.335,1.335,0,0,1-.055-0.241,0.706,0.706,0,0,1,1.373-.3c0.027,0.082.045,0.166,0.075,0.247a1.554,1.554,0,0,0,.109.234,1.825,1.825,0,0,0,.31.4,2.111,2.111,0,0,0,.9.494v-2.818a4.994,4.994,0,0,1-1.852-.807,2.162,2.162,0,0,1-.625-0.757,2.388,2.388,0,0,1-.219-1.02,2.46,2.46,0,0,1,.212-1.032,2.517,2.517,0,0,1,.58-0.8,3.52,3.52,0,0,1,1.9-.85v-0.788a0.716,0.716,0,0,1,.239-0.533,0.707,0.707,0,0,1,.763-0.114,0.719,0.719,0,0,1,.411.647V120c0.092,0.012.184,0.026,0.276,0.043a3.47,3.47,0,0,1,1.844.9,2.722,2.722,0,0,1,.565.818,2.649,2.649,0,0,1,.1.261,1.458,1.458,0,0,1,.066.254,0.706,0.706,0,0,1-1.358.36c-0.029-.078-0.044-0.161-0.074-0.238a1.218,1.218,0,0,0-.116-0.224,1.336,1.336,0,0,0-.334-0.353,2.269,2.269,0,0,0-.969-0.382v2.7a8.993,8.993,0,0,1,1.206.361,2.826,2.826,0,0,1,1.473,1.162c-0.05-.088-0.1-0.174,0,0s0.051,0.092,0,0A2.569,2.569,0,0,1,232.662,127.184Zm-1.54.264-0.011.019S231.118,127.456,231.122,127.448Z" transform="translate(-186 -107)"/>
</svg>
