<svg xmlns="http://www.w3.org/2000/svg" width="437" height="399" viewBox="0 0 437 399">
  <defs>
    <style>
      .cls-1 {
        fill-rule: evenodd;
        fill: #08083b;
      }
    </style>
  </defs>
  <path id="Cart.svg" class="cls-1" d="M1585.58,231.408l-74.92,162.1a37.493,37.493,0,0,1-34.03,21.746H1239.4a37.428,37.428,0,0,1-37.45-37.407V192.321l-44.46-44.4a18.713,18.713,0,0,1,26.48-26.448l56.94,56.864h310.64A37.434,37.434,0,0,1,1585.58,231.408ZM1239.4,377.842h237.23l46.12-99.749H1239.4v99.749Zm312.15-162.093H1239.4v24.937h300.63l11.54-24.956ZM1251.89,440.186a37.407,37.407,0,1,1-37.46,37.407A37.437,37.437,0,0,1,1251.89,440.186Zm199.77,0a37.407,37.407,0,1,1-37.46,37.407A37.437,37.437,0,0,1,1451.66,440.186Z" transform="translate(-1152 -116)"/>
</svg>
