<svg xmlns="http://www.w3.org/2000/svg" width="555" height="554.938" viewBox="0 0 555 554.938">
  <defs>
    <style>
      .cls-1 {
        fill-rule: evenodd;
        fill: #08083b;
      }
    </style>
  </defs>
  <path id="_1.svg" data-name="1.svg" class="cls-1" d="M1218.5,521.986a18.5,18.5,0,0,0-18.5,18.5,129.662,129.662,0,0,1-129.5,129.535H809.079l54.814-82.252a18.506,18.506,0,1,0-30.785-20.547l-74,111.03a18.2,18.2,0,0,0-.94,2.006,19.2,19.2,0,0,0-.876,1.843,16.48,16.48,0,0,0-.018,12.75,19.468,19.468,0,0,0,.876,1.852,17.657,17.657,0,0,0,.939,2l74,111.029A18.5,18.5,0,1,0,863.874,789.2l-54.8-82.16H1070.5A166.708,166.708,0,0,0,1237,540.491,18.5,18.5,0,0,0,1218.5,521.986Zm-370-111.03h261.42l-54.81,82.251a18.5,18.5,0,1,0,30.78,20.547l74-111.03a18.576,18.576,0,0,0,.94-2.006,15.792,15.792,0,0,0,.88-1.843,16.468,16.468,0,0,0,.02-12.731,584.6,584.6,0,0,1-1.82-3.849l-74-111.03a18.5,18.5,0,1,0-30.78,20.538l54.79,82.143H848.5A166.7,166.7,0,0,0,682,540.491a18.5,18.5,0,1,0,37,0A129.663,129.663,0,0,1,848.5,410.956Z" transform="translate(-682 -263.031)"/>
</svg>
