<svg xmlns="http://www.w3.org/2000/svg" width="548" height="439" viewBox="0 0 548 439">
  <defs>
    <style>
      .cls-1 {
        fill: #08083b;
        fill-rule: evenodd;
      }
    </style>
  </defs>
  <path id="_3.SVG" data-name="3.SVG" class="cls-1" d="M1384.58,441.432A43.935,43.935,0,0,0,1352.33,428H895.666A45.825,45.825,0,0,0,850,473.727v347.54A45.828,45.828,0,0,0,895.666,867H1352.33A45.842,45.842,0,0,0,1398,821.267V473.727A44.08,44.08,0,0,0,1384.58,441.432Zm-23.12,379.842a9.248,9.248,0,0,1-9.13,9.14H895.666a9.262,9.262,0,0,1-9.132-9.147V647.5H1361.46V821.274h0Zm0-283.529H886.533V473.723a9.257,9.257,0,0,1,9.132-9.14H1352.33a9.255,9.255,0,0,1,9.13,9.14v64.022h0Zm-438.392,219.5h73.066v36.586H923.068V757.247Zm109.6,0h109.6v36.586h-109.6V757.247Z" transform="translate(-850 -428)"/>
</svg>
