<svg xmlns="http://www.w3.org/2000/svg" width="213.031" height="492" viewBox="0 0 213.031 492">
  <defs>
    <style>
      .cls-1 {
        fill-rule: evenodd;
        fill: #08083b;
      }
    </style>
  </defs>
  <path id="Dollar.svg" class="cls-1" d="M279.351,675.355V551.074a62.81,62.81,0,0,1,30.613,24.453,21.841,21.841,0,1,0,36.448-24.075,106.208,106.208,0,0,0-67.061-45.8V470.878a21.822,21.822,0,1,0-43.643,0v34.707a106.85,106.85,0,0,0,0,209.055V838.92A62.8,62.8,0,0,1,205.1,814.467a21.841,21.841,0,1,0-36.449,24.075,106.212,106.212,0,0,0,67.062,45.8v34.769a21.822,21.822,0,1,0,43.643,0v-34.7a106.849,106.849,0,0,0,0-209.054h0Zm-84.693-65.246a63.032,63.032,0,0,1,41.05-59.019V669.129A63.034,63.034,0,0,1,194.658,610.109ZM279.351,838.9V720.862A62.953,62.953,0,0,1,279.351,838.9Z" transform="translate(-151 -449)"/>
</svg>
