<svg xmlns="http://www.w3.org/2000/svg" width="435.909" height="512.094" viewBox="0 0 435.909 512.094">
  <defs>
    <style>
      .cls-1 {
        fill: #08083b;
        fill-rule: evenodd;
      }
    </style>
  </defs>
  <path id="_9.SVG" data-name="9.SVG" class="cls-1" d="M1341.44,530.853l-0.01-.4c-0.23-4.918-.37-10.122-0.46-15.912a54.27,54.27,0,0,0-51.09-53.17c-58.85-3.286-104.38-22.484-143.28-60.417l-0.33-.316a32.747,32.747,0,0,0-44.52,0l-0.33.316c-38.91,37.933-84.43,57.131-143.288,60.421a54.26,54.26,0,0,0-51.082,53.169c-0.086,5.751-.238,10.955-0.461,15.909l-0.023.926c-1.145,60.038-2.566,134.758,22.42,202.579,13.739,37.3,34.547,69.715,61.841,96.364,31.083,30.349,71.8,54.443,121.023,71.61a36.731,36.731,0,0,0,19.36,1.352,37.654,37.654,0,0,0,4.98-1.36c49.16-17.2,89.83-41.3,120.89-71.649,27.28-26.657,48.09-59.084,61.84-96.388C1344,665.865,1342.58,591,1341.44,530.853Zm-50.7,192.639c-26.35,71.481-80.15,120.572-164.46,150.069a7.46,7.46,0,0,1-.96.258,6.741,6.741,0,0,1-2.64,0,8.109,8.109,0,0,1-.94-0.254c-84.4-29.443-138.235-78.506-164.569-149.991-23.03-62.515-21.725-131.105-20.573-191.615l0.008-.336c0.234-5.2.39-10.647,0.476-16.632a24.118,24.118,0,0,1,22.725-23.61c33.3-1.859,62.563-8.3,89.453-19.683,26.84-11.369,50.69-27.4,72.89-48.993a2.773,2.773,0,0,1,3.72,0c22.2,21.6,46.04,37.624,72.89,48.993,26.88,11.385,56.14,17.824,89.45,19.683a24.106,24.106,0,0,1,22.72,23.614c0.09,6.016.25,11.463,0.48,16.628C1312.56,592.2,1313.84,660.844,1290.74,723.492ZM1124,520.343c-70.34,0-127.568,57.252-127.568,127.62S1053.66,775.587,1124,775.587s127.57-57.252,127.57-127.624S1194.34,520.343,1124,520.343Zm0,225.192a97.572,97.572,0,1,1,97.53-97.572A97.66,97.66,0,0,1,1124,745.535Zm36.66-137.192-59.25,59.276-16.08-16.089a15.021,15.021,0,0,0-21.24,21.246l26.7,26.716a15.019,15.019,0,0,0,21.24,0l69.87-69.9A15.021,15.021,0,1,0,1160.66,608.343Z" transform="translate(-906.031 -391.906)"/>
</svg>
