<?xml version="1.0" encoding="utf-8"?>
<!-- Generator: Adobe Illustrator 22.0.1, SVG Export Plug-In . SVG Version: 6.00 Build 0)  -->
<svg version="1.1" id="Layer_1" xmlns="http://www.w3.org/2000/svg" xmlns:xlink="http://www.w3.org/1999/xlink" x="0px" y="0px"
	 viewBox="0 0 480 480" style="enable-background:new 0 0 480 480;" xml:space="preserve">
<style type="text/css">
	.st0{fill:#08083B;}
</style>
<path class="st0" d="M240.1,471.5c-50.9-0.2-98.8-20-135.1-55.7c-36.2-35.7-56.8-83.3-57.8-134.2c-1-50.8,17.6-99.3,52.4-136.4
	c33.7-35.9,79.2-57.5,128.2-60.8V20.7c0-6.8,5.5-12.3,12.3-12.3s12.3,5.5,12.3,12.3v63.8c49,3.3,94.5,24.9,128.2,60.8
	c34.8,37.1,53.4,85.5,52.4,136.4c-1,50.8-21.5,98.5-57.8,134.2C338.9,451.5,291,471.3,240.1,471.5L240.1,471.5z M227.8,109.1
	C139.3,115.6,69,192.7,71,281.5C73,372.8,148.8,447,240.1,447s167.1-74.2,169.1-165.5c1.9-88.8-68.3-165.9-156.8-172.4v37.8
	c15,5.6,24.4,21.2,22.4,37.1c-2.2,17.4-17.1,30.6-34.7,30.6s-32.5-13.1-34.7-30.6c-2-16,7.4-31.5,22.4-37.1L227.8,109.1L227.8,109.1
	z M229.8,178.6c-0.1,1.2,0,2.5,0.3,3.7c1.2,4.5,5.3,7.7,10,7.7s8.8-3.2,10-7.7c0.3-1.2,0.4-2.5,0.3-3.7c-2.2,3.5-6.1,5.7-10.3,5.7
	C235.9,184.2,232,182,229.8,178.6z"/>
<path class="st0" d="M194.7,395.9c-2.7,0-5.2-0.9-7.4-2.5c-2.6-2-4.3-4.8-4.8-8.1c-0.5-3.2,0.4-6.5,2.3-9.1l90.7-121
	c2.3-3.1,6-4.9,9.8-4.9c2.7,0,5.2,0.9,7.4,2.5c2.6,2,4.3,4.8,4.8,8.1c0.5,3.2-0.4,6.5-2.3,9.1l-90.7,121
	C202.3,394.1,198.6,395.9,194.7,395.9L194.7,395.9z"/>
<path class="st0" d="M202.3,320.3c-19.3,0-35-15.7-35-35s15.7-35,35-35s35,15.7,35,35S221.6,320.3,202.3,320.3z M202.3,275
	c-5.7,0-10.4,4.7-10.4,10.4s4.7,10.4,10.4,10.4s10.4-4.7,10.4-10.4S208,275,202.3,275z"/>
<path class="st0" d="M277.9,395.9c-19.3,0-35-15.7-35-35s15.7-35,35-35s35,15.7,35,35C312.9,380.3,297.2,395.9,277.9,395.9z
	 M277.9,350.6c-5.7,0-10.4,4.7-10.4,10.4c0,5.7,4.7,10.4,10.4,10.4s10.4-4.7,10.4-10.4C288.3,355.2,283.6,350.6,277.9,350.6z"/>
</svg>
