<svg xmlns="http://www.w3.org/2000/svg" width="268.031" height="293" viewBox="0 0 268.031 293">
  <defs>
    <style>
      .cls-1 {
        fill-rule: evenodd;
        fill: #08083b;
      }
    </style>
  </defs>
  <path id="Flag.svg" class="cls-1" d="M381.467,232.083l51.708-75.369a4.884,4.884,0,0,0-4.048-7.647h-146.2V129.533a4.88,4.88,0,0,0-4.878-4.883H175.756v-9.767a4.878,4.878,0,1,0-9.756,0V398.117a4.878,4.878,0,1,0,9.756,0V276.033h53.708A24.317,24.317,0,0,0,248.831,315.1h180.3a4.885,4.885,0,0,0,4.049-7.647ZM175.756,134.417h97.416v131.85H175.756V134.417Zm73.075,170.916a14.65,14.65,0,0,1,0-29.3h29.22a4.881,4.881,0,0,0,4.878-4.883V158.833H419.857l-48.342,70.486a4.968,4.968,0,0,0,0,5.533l48.343,70.481H248.831Z" transform="translate(-166 -110)"/>
</svg>
