<?xml version="1.0" encoding="utf-8"?>
<!-- Generator: Adobe Illustrator 22.0.1, SVG Export Plug-In . SVG Version: 6.00 Build 0)  -->
<svg version="1.1" id="Capa_1" xmlns="http://www.w3.org/2000/svg" xmlns:xlink="http://www.w3.org/1999/xlink" x="0px" y="0px"
	 viewBox="0 0 596.4 596.4" style="enable-background:new 0 0 596.4 596.4;" xml:space="preserve">
<style type="text/css">
	.st0{fill:#08083B;}
</style>
<g>
	<g>
		<path class="st0" d="M140.9,430.2c35.3,0,68.4-13.7,93.4-38.7l63.9-63.9l63.9,63.9c24.9,24.9,58.1,38.7,93.4,38.7
			s68.4-13.7,93.4-38.7c24.9-24.9,38.7-58.1,38.7-93.4s-13.7-68.4-38.7-93.4C524,179.8,490.8,166,455.5,166s-68.4,13.7-93.4,38.7
			l-63.9,63.9l-63.9-63.9c-24.9-24.9-58.1-38.7-93.4-38.7s-68.4,13.7-93.4,38.7c-24.9,24.9-38.7,58.1-38.7,93.4s13.7,68.4,38.7,93.4
			S105.7,430.2,140.9,430.2z M391.6,234.3c17.1-17.1,39.8-26.5,63.9-26.5s46.8,9.4,63.9,26.5c17.1,17.1,26.5,39.8,26.5,63.9
			s-9.4,46.8-26.5,63.9c-17.1,17.1-39.8,26.5-63.9,26.5s-46.8-9.4-63.9-26.5l-63.9-63.9L391.6,234.3z M77,234.3
			c17.1-17.1,39.8-26.5,63.9-26.5s46.8,9.4,63.9,26.5l63.9,63.9l-63.9,63.9c-17.1,17.1-39.8,26.5-63.9,26.5s-46.8-9.4-63.9-26.5
			s-26.5-39.8-26.5-63.9C50.5,274.1,59.9,251.4,77,234.3z"/>
		<path class="st0" d="M455.5,430.7c-35.4,0-68.7-13.8-93.7-38.8l-63.6-63.6l-63.6,63.6c-25,25-58.3,38.8-93.7,38.8
			s-68.7-13.8-93.7-38.8S8.4,333.6,8.4,298.2s13.8-68.7,38.8-93.7s58.3-38.8,93.7-38.8s68.7,13.8,93.7,38.8l63.6,63.6l63.6-63.6
			c25-25,58.3-38.8,93.7-38.8s68.7,13.8,93.7,38.8s38.8,58.3,38.8,93.7s-13.8,68.7-38.8,93.7C524.2,416.9,490.9,430.7,455.5,430.7z
			 M298.2,327l64.3,64.3c24.8,24.8,57.9,38.5,93,38.5s68.2-13.7,93-38.5s38.5-57.9,38.5-93s-13.7-68.2-38.5-93s-57.9-38.5-93-38.5
			s-68.2,13.7-93,38.5l-64.3,64.3l-64.3-64.3c-24.8-24.8-57.9-38.5-93-38.5s-68.2,13.7-93,38.5s-38.5,57.9-38.5,93
			s13.7,68.2,38.5,93s57.9,38.5,93,38.5s68.2-13.7,93-38.5L298.2,327z M455.5,389.1c-24.3,0-47.1-9.5-64.3-26.6L327,298.2l64.3-64.3
			c17.2-17.2,40-26.6,64.3-26.6s47.1,9.5,64.3,26.6c17.2,17.2,26.6,40,26.6,64.3s-9.5,47.1-26.6,64.3
			C502.6,379.6,479.8,389.1,455.5,389.1z M328.3,298.2l63.6,63.6c17,17,39.6,26.3,63.6,26.3s46.6-9.4,63.6-26.3
			c17-17,26.3-39.6,26.3-63.6s-9.4-46.6-26.3-63.6c-17-17-39.6-26.3-63.6-26.3s-46.6,9.4-63.6,26.3L328.3,298.2z M140.9,389.1
			c-24.3,0-47.1-9.5-64.3-26.6S50,322.5,50,298.2s9.5-47.1,26.6-64.3c17.2-17.2,40-26.6,64.3-26.6s47.1,9.5,64.3,26.6l64.3,64.3
			l-64.3,64.3C188,379.6,165.2,389.1,140.9,389.1z M140.9,208.3c-24,0-46.6,9.4-63.6,26.3S51,274.2,51,298.2s9.4,46.6,26.3,63.6
			c17,17,39.6,26.3,63.6,26.3s46.6-9.4,63.6-26.3l63.6-63.6l-63.6-63.6C187.5,217.6,164.9,208.3,140.9,208.3z"/>
	</g>
</g>
</svg>
