<svg xmlns="http://www.w3.org/2000/svg" width="769" height="433.939" viewBox="0 0 769 433.939">
  <defs>
    <style>
      .cls-1 {
        fill-rule: evenodd;
        fill: #08083b;
      }
    </style>
  </defs>
  <path id="card.svg" class="cls-1" d="M1784.91,593.036H1376.37a14.964,14.964,0,0,0,0,29.927h408.54a45,45,0,0,1,45.04,44.9V952.155a45.01,45.01,0,0,1-45.04,44.89H1166.09a45.032,45.032,0,0,1-45.07-44.89V667.867a45.033,45.033,0,0,1,45.07-44.9h90.13a14.964,14.964,0,0,0,0-29.927h-90.13A75.059,75.059,0,0,0,1091,667.867V952.155a75.053,75.053,0,0,0,75.09,74.805h618.82A75.047,75.047,0,0,0,1860,952.155V667.867A75.059,75.059,0,0,0,1784.91,593.036ZM1316.3,670.848c-79.25.379-143.18,65-142.8,144.326s64.92,143.334,144.17,142.955c78.97-.377,142.8-64.576,142.8-143.639C1460.19,735,1395.7,670.735,1316.3,670.82v0.028Zm-65.23,236.893a70.778,70.778,0,0,1,130.44,0,114.158,114.158,0,0,1-130.44-.028v0.028ZM1288.96,807.3v-5.6a27.335,27.335,0,0,1,54.67,0v5.6a27.335,27.335,0,1,1-54.67-.028V807.3Zm115.58,79.226A100.538,100.538,0,0,0,1359.8,844.4a56.719,56.719,0,0,0,13.78-37.108v-5.6a57.36,57.36,0,1,0-114.72,0h0v5.6a56.67,56.67,0,0,0,13.79,37.108,100.7,100.7,0,0,0-44.75,42.118,114.245,114.245,0,1,1,176.64-.028v0.028Zm392.39-122.8a17.672,17.672,0,0,0-19.48-14.963h-240.4a15.494,15.494,0,1,0,0,29.927h240.41a17.684,17.684,0,0,0,19.47-14.992v0.028Zm-258.91,55.836a15.5,15.5,0,1,0,0,29.927h238.44a15.494,15.494,0,1,0,0-29.927H1538.02Zm0,70.8a15.5,15.5,0,1,0,0,29.927h238.44a15.494,15.494,0,1,0,0-29.927H1538.02ZM1316.3,623.005a14.915,14.915,0,1,1,0-.07v0.07Z" transform="translate(-1091 -593.031)"/>
</svg>
