<svg xmlns="http://www.w3.org/2000/svg" width="413" height="405" viewBox="0 0 413 405">
  <defs>
    <style>
      .cls-1 {
        fill: #08083b;
        fill-rule: evenodd;
      }
    </style>
  </defs>
  <path id="_11.SVG" data-name="11.SVG" class="cls-1" d="M1185.25,767.5H936.015v-249A55.592,55.592,0,0,1,991.571,463H1120.69a55.669,55.669,0,0,1,41.26,18.451,9,9,0,0,0,13.39-12.043,73.74,73.74,0,0,0-54.65-24.4H991.571A73.618,73.618,0,0,0,918,518.5v258A73.619,73.619,0,0,0,991.571,850H1120.69a73.616,73.616,0,0,0,73.57-73.5A9,9,0,0,0,1185.25,767.5ZM1120.69,832H991.571a55.63,55.63,0,0,1-54.826-46.5H1175.52A55.635,55.635,0,0,1,1120.69,832Zm-82.17-23.253a9.008,9.008,0,0,1,9.01-9h17.2a9,9,0,1,1,0,18h-17.2A9.008,9.008,0,0,1,1038.52,808.751Zm-3.22-79.3a166.278,166.278,0,0,1,0-210.257,9,9,0,0,1,13.96,11.377,148.277,148.277,0,0,0,0,187.5A9,9,0,0,1,1035.3,729.452ZM1331,624.323a166.649,166.649,0,0,1-37.45,105.13,9,9,0,0,1-13.96-11.377,148.311,148.311,0,0,0,0-187.5,9,9,0,0,1,13.96-11.377A166.643,166.643,0,0,1,1331,624.323ZM1282.98,655.7a122.617,122.617,0,0,0-5.91-79.784,9.269,9.269,0,0,0-.57-1.284,123.022,123.022,0,0,0-89.79-70.786q-0.33-.072-0.66-0.12a123.565,123.565,0,0,0-43.25,0c-0.22.032-.44,0.073-0.67,0.122a123.04,123.04,0,0,0-89.8,70.806,8.713,8.713,0,0,0-.54,1.241,122.545,122.545,0,0,0-5.92,79.783q0.09,0.412.21,0.812a122.975,122.975,0,0,0,96.1,88.329c0.19,0.042.39,0.078,0.58,0.106a123.477,123.477,0,0,0,43.33,0c0.19-.028.39-0.063,0.58-0.1a122.977,122.977,0,0,0,96.1-88.353Q1282.89,656.084,1282.98,655.7Zm-27.59-82.951a400.443,400.443,0,0,1-46.22,7.281c-2.03-20.465-5.46-39.074-10.04-54.3A105.187,105.187,0,0,1,1255.39,572.744Zm-104.95-52a106.639,106.639,0,0,1,27.97,0c5.9,15.143,10.34,36.538,12.77,60.7a467.787,467.787,0,0,1-53.51,0C1140.1,557.281,1144.54,535.886,1150.44,520.742Zm-20.72,4.982c-4.58,15.227-8.01,33.84-10.04,54.3a400.659,400.659,0,0,1-46.22-7.282A105.149,105.149,0,0,1,1129.72,525.724Zm-69.91,98.6a103.8,103.8,0,0,1,5.99-34.856,416.075,416.075,0,0,0,52.48,8.506c-0.48,8.588-.74,17.405-0.74,26.35,0,10.276.34,20.377,0.98,30.162a484.944,484.944,0,0,1-56.41-8.332A104.043,104.043,0,0,1,1059.81,624.323Zm8.57,41.422a508.122,508.122,0,0,0,51.72,6.938c2.07,18.863,5.34,36.028,9.62,50.24A105.112,105.112,0,0,1,1068.38,665.745Zm110.03,62.162a106.854,106.854,0,0,1-27.97,0c-5.35-13.735-9.5-32.614-12.04-54.029,17.25,0.827,34.8.827,52.05,0C1187.91,695.293,1183.76,714.172,1178.41,727.907Zm13.76-72.137a526.984,526.984,0,0,1-55.49,0c-0.74-10.19-1.12-20.755-1.12-31.448,0-8.435.24-16.787,0.7-24.94q13.9,0.816,28.17.818,14.235,0,28.16-.818c0.46,8.154.7,16.5,0.7,24.94C1193.29,635.016,1192.9,645.58,1192.17,655.77Zm6.96,67.154c4.28-14.212,7.55-31.377,9.62-50.241a508.219,508.219,0,0,0,51.72-6.939A105.144,105.144,0,0,1,1199.13,722.924Zm67.61-76.772a484.944,484.944,0,0,1-56.41,8.332c0.64-9.785.97-19.885,0.97-30.162,0-8.946-.25-17.763-0.73-26.35a416.075,416.075,0,0,0,52.48-8.506A104.538,104.538,0,0,1,1266.74,646.152ZM1006.11,490.077a9,9,0,0,1-9,9A23.363,23.363,0,0,0,973.76,522.4a9.008,9.008,0,0,1-18.015,0,41.389,41.389,0,0,1,41.362-41.323A9,9,0,0,1,1006.11,490.077Z" transform="translate(-918 -445)"/>
</svg>
