<svg xmlns="http://www.w3.org/2000/svg" width="385" height="512" viewBox="0 0 385 512">
  <defs>
    <style>
      .cls-1 {
        fill: #08083b;
        fill-rule: evenodd;
      }
    </style>
  </defs>
  <path id="_7.SVG" data-name="7.SVG" class="cls-1" d="M1642,566h-75.43a60,60,0,0,0-113.14,0H1377a60.063,60.063,0,0,0-60,60V978a60.06,60.06,0,0,0,60,60h265.06A60.086,60.086,0,0,0,1702,978V626A60.063,60.063,0,0,0,1642,566Zm-152,40V586a20,20,0,0,1,40,0v20h40v39H1450V606h40Zm172,372a20.022,20.022,0,0,1-19.96,20H1377a20.022,20.022,0,0,1-20-20V626a20.022,20.022,0,0,1,20-20h33v79h200V606h32a20.022,20.022,0,0,1,20,20V978Zm-75.79-221.961,29.58,26.922L1487.7,923.711l-84.61-81.836,27.82-28.75,54.96,53.164Z" transform="translate(-1317 -526)"/>
</svg>
