<svg xmlns="http://www.w3.org/2000/svg" width="31" height="19" viewBox="0 0 31 19">
  <defs>
    <style>
      .cls-1 {
        fill: rgba(255,255,255,0.6);
        fill-rule: evenodd;
      }
    </style>
  </defs>
  <path id="Unvisible.svg" class="cls-1" d="M721.5,667.016c-7.564,0-14.888,6.941-15.181,7.248a1.023,1.023,0,0,0,0,1.486c0.32,0.307,7.617,7.249,15.181,7.249s14.889-6.942,15.182-7.249a1.025,1.025,0,0,0,0-1.486C736.387,673.957,729.089,667.016,721.5,667.016Zm0,13.857c-5.3,0-10.76-4.15-12.811-5.891,2.051-1.742,7.511-5.892,12.811-5.892s10.76,4.15,12.811,5.892C732.258,676.723,726.8,680.873,721.5,680.873Zm-3.915-5.891a3.945,3.945,0,1,0,3.942-3.791A3.876,3.876,0,0,0,717.583,674.982Zm5.673,0a1.759,1.759,0,1,1-1.758-1.691A1.758,1.758,0,0,1,723.256,674.982Zm10.306-8.6a1.077,1.077,0,0,1-.314,1.523l-23.027,16.838a1.173,1.173,0,0,1-1.606-.12,1.078,1.078,0,0,1,.314-1.523l23.028-16.838A1.172,1.172,0,0,1,733.562,666.381Z" transform="translate(-706 -666)"/>
</svg>
