<?xml version="1.0" encoding="utf-8"?>
<!-- Generator: Adobe Illustrator 22.0.1, SVG Export Plug-In . SVG Version: 6.00 Build 0)  -->
<svg version="1.1" id="Capa_1" xmlns="http://www.w3.org/2000/svg" xmlns:xlink="http://www.w3.org/1999/xlink" x="0px" y="0px"
	 viewBox="0 0 481 481" style="enable-background:new 0 0 481 481;" xml:space="preserve">
<style type="text/css">
	.st0{fill:#08083B;}
</style>
<g>
	<g>
		<path class="st0" d="M242.9,407.7c-6.8,0-12.4-5.5-12.4-12.4V380H209c-6.8,0-12.4-5.5-12.4-12.4s5.5-12.4,12.4-12.4h46.9
			c9,0,16.3-7.3,16.3-16.3s-7.3-16.3-16.3-16.3h-26.2c-22.6,0-41-18.4-41-41s18.4-41,41-41h0.7v-14.9c0-6.8,5.5-12.4,12.4-12.4
			c6.8,0,12.4,5.5,12.4,12.4v14.9h20.6c6.8,0,12.4,5.5,12.4,12.4s-5.5,12.4-12.4,12.4h-46c-9,0-16.3,7.3-16.3,16.3
			s7.3,16.3,16.3,16.3H256c22.6,0,41,18.4,41,41c0,22.3-18.1,40.7-40.4,41h-1.2v15.3C255.2,402.1,249.7,407.7,242.9,407.7z"/>
	</g>
	<g>
		<path class="st0" d="M132.5,470.3c-49.4,0-89.5-40.2-89.5-89.5c0-36.9,7.6-73.2,22.7-108.1c12.1-27.7,28.7-54.5,49.6-79.6
			c24.6-29.5,49.1-49.6,61.9-59.2l-51.8-78.3c-3.2-4.8-2.6-11.3,1.4-15.5c18-18.5,36.4-27.1,58-27.1c17,0,34.5,5.2,57.2,13.5
			c1.6,0.6,3.2,0.9,5.1,0.9c6.1,0,13.8-3.2,22-6.5l0.9-0.4c10.3-4.4,23.2-9.8,37.3-9.8c15.1,0,28.6,6.1,41.4,18.5
			c3.9,3.7,4.9,9.8,2.3,14.6l-48.1,89.3c13,9.6,37.8,29.7,62.9,59.9c20.8,24.8,37.5,51.6,49.6,79.6c15.1,34.8,22.7,71.2,22.7,108.1
			c0,49.4-40.2,89.5-89.5,89.5H132.5V470.3z M198,149.3c-13.2,9.4-38.9,29.6-64.2,60.2C90,262.4,67.7,320,67.7,380.7
			c0,35.7,29.1,64.8,64.8,64.8h216c17.3,0,33.6-6.8,45.8-19.1c12.2-12.3,18.8-28.5,18.8-45.7c0-60.8-22.2-118.5-66.1-171.3
			c-28-33.8-55.9-54.4-64.2-60.2H198V149.3z M279.3,124.5l45-83.6c-7.4-5-13.3-5.6-17.1-5.6c-8.8,0-18,3.8-27.7,7.9
			c-9.8,4.1-20.8,8.8-32.4,8.8c-4.7,0-9.3-0.8-13.5-2.3c-20-7.4-35.1-12-48.7-12c-12.2,0-22.4,4-33,12.9l49,74h78.4V124.5z"/>
	</g>
</g>
</svg>
