<svg xmlns="http://www.w3.org/2000/svg" width="346" height="441.562" viewBox="0 0 346 441.562">
  <defs>
    <style>
      .cls-1 {
        fill: #08083b;
        fill-rule: evenodd;
      }
    </style>
  </defs>
  <path id="_6.SVG" data-name="6.SVG" class="cls-1" d="M1280.26,599.57h-72.03a17.017,17.017,0,1,0,0,34.033h54.73V834.966H985.032V633.6h60.408a17.017,17.017,0,1,0,0-34.033H967.733c-9.359,0-16.733,8.508-16.733,17.867V853.4c0,9.36,7.374,15.6,16.733,15.6H1280.26c9.36,0,16.74-6.239,16.74-15.6V617.437C1297,608.078,1289.62,599.57,1280.26,599.57Zm-159.1,127.624a17.069,17.069,0,0,0,17.02-17.016V479.6l72.6,64.663a17.076,17.076,0,1,0,22.69-25.525l-97.84-87.068a21.44,21.44,0,0,0-29.22,6.239l-84.79,81.4a17.047,17.047,0,1,0,23.53,24.674l58.99-56.723V710.178A17.075,17.075,0,0,0,1121.16,727.194Z" transform="translate(-951 -427.438)"/>
</svg>
